<?xml version="1.0" encoding="UTF-8"?>
<svg id="_レイヤー_2" data-name="レイヤー 2" xmlns="http://www.w3.org/2000/svg" viewBox="0 0 83.83 80.65">
  <defs>
    <style>
      .cls-1 {
        fill: var(--fill-color-1, currentColor);
        stroke: #898989;
        stroke-miterlimit: 10;
        stroke-width: 2.62px;
      }
    </style>
  </defs>
  <g id="_レイヤー_1-2" data-name="レイヤー 1">
    <g>
      <path class="cls-1" d="M33.09,74.41c-1.44.4-3.03-.19-3.84-1.54L1.8,26.08c-.97-1.62-.45-3.72,1.18-4.69L35.65,1.8c1.62-.97,3.72-.45,4.69,1.18l2.97,5.06"/>
      <path class="cls-1" d="M32.94,74.37c-1.41-.15-2.64-1.17-2.98-2.63l-12.79-54.14c-.43-1.84.72-3.68,2.56-4.11L56.85,4.9c1.84-.43,3.68.72,4.11,2.56l1.28,5.4"/>
      <rect class="cls-1" x="34.07" y="12.4" width="44.94" height="64.77" rx="3.42" ry="3.42" transform="translate(6.1 -6.77) rotate(7.24)"/>
    </g>
  </g>
</svg>